<?xml version="1.0" encoding="UTF-8"?>
<svg version="1.1" xmlns="http://www.w3.org/2000/svg" width="398" height="204">
<path d="M0 0 C-1.19094749 3.57284248 -2.03633603 3.95921907 -5.13671875 5.93359375 C-6.01255615 6.49393311 -6.88839355 7.05427246 -7.79077148 7.6315918 C-8.74669189 8.2275415 -9.7026123 8.82349121 -10.6875 9.4375 C-11.6762915 10.05858643 -12.66508301 10.67967285 -13.68383789 11.31958008 C-40.29245041 27.85220687 -68.27714994 41.11780532 -98 51 C-97.26858858 51.00423194 -96.53717716 51.00846388 -95.78360176 51.01282406 C-77.81277265 51.11708087 -59.84197564 51.22584043 -41.87120247 51.33933926 C-33.1799341 51.3941275 -24.48866174 51.44750663 -15.79736328 51.49731445 C-8.20351727 51.54083689 -0.6096949 51.58726151 6.98411381 51.63687855 C10.98812792 51.66294668 14.99213901 51.68776162 18.99618149 51.70907402 C44.51098501 51.84635409 70.00991513 52.30009921 95.5 53.5 C96.25584948 53.53507188 97.01169895 53.57014376 97.79045296 53.60627842 C102.75661017 53.87830509 102.75661017 53.87830509 105 55 C105 55.66 105 56.32 105 57 C76.89539345 61.18925394 48.0329808 60.15358424 19.69064069 60.1343255 C14.67729981 60.13174263 9.66396049 60.13415559 4.65061951 60.13571167 C-3.75969782 60.13751661 -12.17000629 60.13517173 -20.58032227 60.13037109 C-30.21595325 60.12493353 -39.85156305 60.12669431 -49.48719352 60.1321975 C-57.85336021 60.13677904 -66.21952063 60.13735479 -74.58568817 60.13475883 C-79.54154402 60.13322322 -84.49739001 60.1329255 -89.45324516 60.13629532 C-107.22799452 60.14650058 -125.0038708 60.14103434 -142.77368164 59.67919922 C-143.92497527 59.65723543 -145.0762689 59.63527164 -146.26245022 59.61264229 C-159.27480814 59.19599089 -172.50381378 57.1635309 -182.8125 48.6875 C-188.2933594 41.95387273 -191.00068398 36.56077798 -191.5625 27.8125 C-191.64628906 26.54019531 -191.73007813 25.26789063 -191.81640625 23.95703125 C-191.87699219 22.98121094 -191.93757813 22.00539062 -192 21 C-191.01 21 -190.02 21 -189 21 C-188.76925781 21.66386719 -188.53851563 22.32773438 -188.30078125 23.01171875 C-185.35700902 30.98201116 -181.98004679 35.28505118 -174.35546875 39.10546875 C-141.84698343 51.4511456 -99.64047102 35.32257265 -70 22 C-66.08880751 20.24006304 -62.19423189 18.44900457 -58.3125 16.625 C-57.34562256 16.1717334 -56.37874512 15.7184668 -55.38256836 15.25146484 C-50.80323154 13.04615366 -46.49117345 10.75603339 -42.3125 7.85546875 C-28.64053267 -1.49895747 -16.25448864 -1.25061437 0 0 Z " fill="#3A96D2" transform="translate(250,137)"/>
<path d="M0 0 C2.49919188 0.00858576 4.99614468 -0.02050845 7.49511719 -0.05200195 C20.64446786 -0.11178061 30.41128176 1.59096555 40.19824219 11.08276367 C45.09787447 16.76145626 45.62775236 22.15768836 45.23730469 29.44604492 C44.57730469 29.44604492 43.91730469 29.44604492 43.23730469 29.44604492 C42.56949542 28.26083388 41.95412318 27.04597158 41.36230469 25.82104492 C37.92820665 20.03243057 32.33797187 17.79058324 26.23730469 15.44604492 C-8.14368329 7.25458935 -47.33664654 22.67827979 -77.76269531 37.44604492 C-78.45331055 37.77427246 -79.14392578 38.1025 -79.85546875 38.44067383 C-87.97223674 42.29936889 -95.8435408 46.53484563 -103.63769531 51.00854492 C-104.77863647 51.66089111 -104.77863647 51.66089111 -105.94262695 52.32641602 C-109.14316087 54.19151283 -112.20657737 55.99720407 -115.09521484 58.32861328 C-121.98562051 63.82938654 -127.21952059 64.34215184 -135.88769531 63.88354492 C-137.03496094 63.85196289 -138.18222656 63.82038086 -139.36425781 63.7878418 C-142.16649544 63.70610987 -144.96317248 63.59162011 -147.76269531 63.44604492 C-146.63921358 60.07559972 -146.0733023 59.68539527 -143.24707031 57.76635742 C-142.50199219 57.25661377 -141.75691406 56.74687012 -140.98925781 56.22167969 C-140.17199219 55.67697021 -139.35472656 55.13226074 -138.51269531 54.57104492 C-137.23265625 53.71047485 -137.23265625 53.71047485 -135.92675781 52.83251953 C-133.21486922 51.02220542 -130.49160006 49.23059213 -127.76269531 47.44604492 C-126.51456055 46.62789307 -126.51456055 46.62789307 -125.24121094 45.79321289 C-88.61184832 21.9812224 -44.63517125 -0.23348441 0 0 Z " fill="#F29D1D" transform="translate(269.7626953125,6.553955078125)"/>
<path d="M0 0 C1.09056733 0.00699732 2.18113466 0.01399464 3.30474949 0.02120399 C4.55276844 0.02679832 5.80078739 0.03239265 7.0866251 0.03815651 C8.48359856 0.04954795 9.8805712 0.0610413 11.27754307 0.07262611 C12.73974466 0.08112964 14.20194881 0.08920145 15.66415501 0.09687233 C19.65802673 0.11916969 23.65183003 0.14785431 27.64565063 0.17782736 C31.85248215 0.20854276 36.05934517 0.23415791 40.26620579 0.26052284 C47.36766847 0.30584241 54.46909389 0.35526412 61.57051182 0.40709877 C69.68991976 0.4663178 77.80934883 0.51937958 85.9288215 0.56886709 C93.80055144 0.61698931 101.67224528 0.66965008 109.54393291 0.724226 C112.85675493 0.74712691 116.16958107 0.76858159 119.48242092 0.78873253 C145.35704057 0.94860924 171.21713549 1.39398553 197.06684971 2.61022377 C198.20077829 2.66283584 198.20077829 2.66283584 199.35761452 2.71651077 C204.32348697 2.9885424 204.32348697 2.9885424 206.56684971 4.11022377 C206.56684971 4.77022377 206.56684971 5.43022377 206.56684971 6.11022377 C178.46224316 10.29947771 149.59983051 9.26380801 121.2574904 9.24454927 C116.24414951 9.2419664 111.2308102 9.24437936 106.21746922 9.24593544 C97.80715189 9.24774038 89.39684342 9.2453955 80.98652744 9.24059486 C71.35089646 9.2351573 61.71528666 9.23691808 52.07965618 9.24242127 C43.7134895 9.24700281 35.34732908 9.24757856 26.98116153 9.2449826 C22.02530569 9.24344699 17.0694597 9.24314928 12.11360455 9.24651909 C-22.94049598 9.26683344 -22.94049598 9.26683344 -39.97595322 8.78287673 C-41.90059509 8.72851151 -43.82544381 8.6816307 -45.75028801 8.63497543 C-47.44067995 8.57787305 -47.44067995 8.57787305 -49.16522121 8.51961708 C-50.14185254 8.4890415 -51.11848387 8.45846592 -52.12471008 8.42696381 C-54.43315029 8.11022377 -54.43315029 8.11022377 -56.43315029 6.11022377 C-55.71361172 6.09040443 -54.99407314 6.0705851 -54.25273037 6.05016518 C-33.43526176 5.59043732 -33.43526176 5.59043732 -12.99565029 1.98522377 C-9.64132608 1.16135467 -6.86237144 1.02658423 -3.43315029 1.11022377 C-2.43315029 0.11022377 -2.43315029 0.11022377 0 0 Z " fill="#BEBFC0" transform="translate(148.43315029144287,187.8897762298584)"/>
<path d="M0 0 C3.650625 -0.0825 7.30125 -0.165 11.0625 -0.25 C12.19953369 -0.28641602 13.33656738 -0.32283203 14.50805664 -0.36035156 C20.92113166 -0.43026113 24.82146858 0.12137131 30 4 C32.57763873 7.54425326 33.2131547 9.98897677 32.75 14.25 C32 18 32 18 31 20 C31.99 20.33 32.98 20.66 34 21 C36.84269652 25.26404478 36.62359076 28.99568417 36 34 C33.60942037 39.05699537 31.20039884 41.09392161 26 43 C21.53357083 43.36293933 17.10224912 43.28136441 12.625 43.1875 C8.45875 43.125625 4.2925 43.06375 0 43 C0 28.81 0 14.62 0 0 Z M10 10 C10 11.98 10 13.96 10 16 C11.79133978 16.05391993 13.58313899 16.09275571 15.375 16.125 C16.37273437 16.14820313 17.37046875 16.17140625 18.3984375 16.1953125 C21.16262173 16.27216848 21.16262173 16.27216848 23 14 C22.67 12.68 22.34 11.36 22 10 C18.04 10 14.08 10 10 10 Z M10 25 C10 27.97 10 30.94 10 34 C12.47960136 33.85975781 14.95852402 33.7130815 17.4375 33.5625 C18.49807617 33.50352539 18.49807617 33.50352539 19.58007812 33.44335938 C23.08690419 33.52375562 23.08690419 33.52375562 26 32 C26.04063832 30.33382885 26.042721 28.66611905 26 27 C20.44542412 25.10908055 15.86928404 24.81940664 10 25 Z " fill="#00A1A5" transform="translate(76,81)"/>
<path d="M0 0 C4.18726294 -0.11679952 8.37410301 -0.18745327 12.5625 -0.25 C14.33463867 -0.30027344 14.33463867 -0.30027344 16.14257812 -0.3515625 C22.99571378 -0.42834833 27.50111448 -0.25545775 33 4 C36.39722923 8.71228571 36.73654218 13.38008224 36 19 C34.30239493 23.73542467 32.091918 26.12459816 28 29 C28.51691406 29.43570313 29.03382813 29.87140625 29.56640625 30.3203125 C31.56704231 32.12910675 33.35865827 33.85725623 35 36 C35 39.375 35 39.375 34 42 C33 43 33 43 29.875 43.0625 C25.40025179 42.35164387 23.56020239 39.69143051 20.84375 36.27734375 C17.84748946 32.57645414 14.40288692 29.32333891 11 26 C10.95101563 27.05960938 10.90203125 28.11921875 10.8515625 29.2109375 C10.77653291 30.59898497 10.70098515 31.98700451 10.625 33.375 C10.57859375 34.42300781 10.57859375 34.42300781 10.53125 35.4921875 C10.2265625 40.7734375 10.2265625 40.7734375 8 43 C4.875 43.125 4.875 43.125 2 43 C-0.74325782 38.99427405 -0.25301454 34.73133001 -0.1953125 30.078125 C-0.1924826 29.21813904 -0.18965271 28.35815308 -0.18673706 27.47210693 C-0.1755615 24.73126179 -0.15046179 21.99074602 -0.125 19.25 C-0.1149668 17.38932764 -0.10584155 15.52865015 -0.09765625 13.66796875 C-0.07563076 9.11185268 -0.04111897 4.55598214 0 0 Z M10 10 C10 13.3 10 16.6 10 20 C12.29160319 20.02692484 14.58329546 20.04636124 16.875 20.0625 C18.78925781 20.07990234 18.78925781 20.07990234 20.7421875 20.09765625 C23.88664652 20.23176569 23.88664652 20.23176569 26 19 C26 16.36 26 13.72 26 11 C22.99686252 9.49843126 20.20932478 9.90718796 16.875 9.9375 C15.59367187 9.94652344 14.31234375 9.95554687 12.9921875 9.96484375 C12.00476563 9.97644531 11.01734375 9.98804687 10 10 Z " fill="#00A2A5" transform="translate(252,81)"/>
<path d="M0 0 C4.28292296 4.13523596 6.72443851 8.3180818 7.3359375 14.26953125 C7.48575615 27.85808271 7.48575615 27.85808271 3 33 C-3.55599512 38.56525705 -9.37394741 40.58481712 -18 40 C-24.59711679 38.2910326 -29.16981812 35.4910809 -33.25 29.9375 C-36.35080404 24.06361917 -36.68066332 17.03873639 -35.25 10.625 C-32.96423857 3.99629186 -30.11527556 0.37014184 -24 -3 C-15.52875885 -6.50236651 -7.35377733 -5.23249541 0 0 Z M-23 8 C-25.96136463 12.34333479 -26.55690438 15.80222575 -26 21 C-24.72874932 24.4792124 -23.62433795 26.46485319 -20.8125 28.875 C-17.0915678 30.36337288 -13.9558693 30.60058744 -10 30 C-6.41447119 28.36312815 -5.20684945 27.31027417 -3 24 C-2.64400836 21.19855546 -2.64400836 21.19855546 -2.6875 18.125 C-2.67074219 17.09632812 -2.65398437 16.06765625 -2.63671875 15.0078125 C-3.04983702 11.58737091 -3.93426774 9.73648768 -6 7 C-12.35759085 4.09762157 -17.10401962 4.15479541 -23 8 Z " fill="#00A1A5" transform="translate(242,85)"/>
<path d="M0 0 C5.15084354 4.76792711 7.57449048 9.28071258 8.21484375 16.3828125 C8.49159848 23.6227162 7.35071557 29.21625787 2.625 34.8125 C-3.46766429 39.88972024 -8.0749865 41.51967302 -16 41 C-22.61550754 39.82911371 -26.32867312 37.27039411 -30.58984375 32.1328125 C-34.78245606 25.79163155 -34.70687438 19.39086372 -34 12 C-32.33261236 5.82966728 -28.37863852 1.34792806 -23 -2 C-15.52683761 -5.30954334 -6.77125737 -4.51417158 0 0 Z M-22 9 C-25.03154026 13.51739388 -24.50333868 18.78076503 -24 24 C-22.76669872 27.02158813 -21.84362995 28.34384337 -19.3125 30.3125 C-14.68909218 31.68702665 -10.60559547 31.64223819 -6.1875 29.875 C-2.38791346 26.61821154 -1.1528529 23.42662704 -0.625 18.5 C-1.04726008 14.55890595 -1.76649409 12.27580867 -4 9 C-10.63171908 4.67496582 -15.13712941 5.37433252 -22 9 Z " fill="#00A1A5" transform="translate(65,84)"/>
<path d="M0 0 C4.2290362 -0.08725659 8.45784012 -0.1404789 12.6875 -0.1875 C13.88568359 -0.21263672 15.08386719 -0.23777344 16.31835938 -0.26367188 C17.47529297 -0.27333984 18.63222656 -0.28300781 19.82421875 -0.29296875 C20.88729248 -0.3086792 21.95036621 -0.32438965 23.0456543 -0.34057617 C27.69632568 0.19555196 30.20897615 2.09911173 33.25 5.5625 C36.44682568 10.01522149 36.73819866 13.60943308 36 19 C34.59151342 22.81739352 32.70264586 25.80332909 29.34375 28.1640625 C23.2770703 30.91463338 16.50821469 30.26786859 10 30 C10.02320313 30.77085938 10.04640625 31.54171875 10.0703125 32.3359375 C10.09738281 33.84027344 10.09738281 33.84027344 10.125 35.375 C10.14820313 36.37273437 10.17140625 37.37046875 10.1953125 38.3984375 C10 41 10 41 8 43 C5 43.3125 5 43.3125 2 43 C-0.029668 39.955498 -0.24856301 39.39723672 -0.22705078 35.98754883 C-0.22689972 35.18694534 -0.22674866 34.38634186 -0.22659302 33.56147766 C-0.21627045 32.70201035 -0.20594788 31.84254303 -0.1953125 30.95703125 C-0.1924826 30.0734343 -0.18965271 29.18983734 -0.18673706 28.27946472 C-0.17554097 25.45700546 -0.15043751 22.63486338 -0.125 19.8125 C-0.11496946 17.89909312 -0.10584374 15.98568127 -0.09765625 14.07226562 C-0.07560351 9.38138818 -0.04107762 4.69074787 0 0 Z M10 10 C10 13.3 10 16.6 10 20 C12.26979665 20.10794277 14.54105196 20.18556176 16.8125 20.25 C18.07707031 20.29640625 19.34164062 20.3428125 20.64453125 20.390625 C24.0363444 20.33371749 24.0363444 20.33371749 25.96484375 18.15234375 C27.30941283 15.35665484 26.94199072 13.90447139 26 11 C24.83722968 9.60843516 24.83722968 9.60843516 21.62109375 9.90234375 C20.22652923 9.90901631 18.83198257 9.92097468 17.4375 9.9375 C16.72658203 9.94201172 16.01566406 9.94652344 15.28320312 9.95117188 C13.52209987 9.96299136 11.76103964 9.98092737 10 10 Z " fill="#00A0A4" transform="translate(170,81)"/>
<path d="M0 0 C3.56321879 2.54796769 4.56035035 6.58725916 5.953125 10.5546875 C6.21760437 11.29324982 6.48208374 12.03181213 6.75457764 12.79275513 C7.3101605 14.35296174 7.86127118 15.91476715 8.40820312 17.47802734 C9.24642093 19.86480879 10.10662206 22.24286067 10.96875 24.62109375 C11.50656362 26.14014585 12.04306609 27.65966292 12.578125 29.1796875 C12.83636047 29.88817841 13.09459595 30.59666931 13.36065674 31.32662964 C14.70825393 35.24508829 15.36892475 38.02337658 14 42 C13 43 13 43 10.125 43.375 C9.09375 43.25125 8.0625 43.1275 7 43 C5.25 40.75 5.25 40.75 4 38 C3.34 36.68 2.68 35.36 2 34 C-2.62 34 -7.24 34 -12 34 C-12.639375 35.299375 -13.27875 36.59875 -13.9375 37.9375 C-15.875 41.875 -15.875 41.875 -17 43 C-19.4375 43.1875 -19.4375 43.1875 -22 43 C-22.66 42.34 -23.32 41.68 -24 41 C-23.83171692 33.73725669 -21.23684183 27.02517624 -18.87182617 20.22607422 C-18.18583502 18.24519217 -17.52113347 16.25797299 -16.85742188 14.26953125 C-16.42053949 12.99695959 -15.98243075 11.72480814 -15.54296875 10.453125 C-15.15133545 9.31004883 -14.75970215 8.16697266 -14.35620117 6.98925781 C-12.94295733 3.87426994 -11.63373062 2.15415011 -9 0 C-5.45026831 -1.1832439 -3.60040463 -0.90010116 0 0 Z M-6 13 C-7.485 18.445 -7.485 18.445 -9 24 C-6.03 24 -3.06 24 0 24 C-1.32 20.37 -2.64 16.74 -4 13 C-4.66 13 -5.32 13 -6 13 Z " fill="#00A3A7" transform="translate(347,81)"/>
<path d="M0 0 C0.125 2.875 0.125 2.875 0 6 C-2 8 -2 8 -3.87939453 8.22705078 C-4.62302246 8.21657715 -5.36665039 8.20610352 -6.1328125 8.1953125 C-7.34130859 8.18564453 -7.34130859 8.18564453 -8.57421875 8.17578125 C-9.41597656 8.15902344 -10.25773437 8.14226562 -11.125 8.125 C-12.39923828 8.11146484 -12.39923828 8.11146484 -13.69921875 8.09765625 C-15.79959884 8.07405647 -17.89983444 8.03818483 -20 8 C-20 8.66 -20 9.32 -20 10 C-19.3709375 10.18175781 -18.741875 10.36351563 -18.09375 10.55078125 C-15.38873391 11.34517604 -12.69423296 12.16982265 -10 13 C-9.25105469 13.2165625 -8.50210938 13.433125 -7.73046875 13.65625 C-2.5086917 15.33360859 0.13340627 17.25220413 3 22 C4.00832028 26.47051735 3.38204101 29.30178711 1.1875 33.3125 C0.465625 34.199375 -0.25625 35.08625 -1 36 C-1.433125 36.5775 -1.86625 37.155 -2.3125 37.75 C-6.85471614 41.11460455 -12.55383395 41.4615395 -18 41 C-27.13163065 38.86836935 -27.13163065 38.86836935 -30 36 C-30.25 33.5 -30.25 33.5 -30 31 C-29.34 30.34 -28.68 29.68 -28 29 C-25.14616221 29.0439052 -22.39855425 29.18691552 -19.5625 29.4375 C-13.71825266 30.04609402 -13.71825266 30.04609402 -8 29 C-8 27.68 -8 26.36 -8 25 C-8.6290625 24.81824219 -9.258125 24.63648437 -9.90625 24.44921875 C-12.61131863 23.65480854 -15.30645743 22.83261929 -18 22 C-19.14082031 21.65775391 -19.14082031 21.65775391 -20.3046875 21.30859375 C-24.93941098 19.77826053 -27.36562202 18.10962965 -30 14 C-31.43304064 11.13391871 -31.30644155 9.18699217 -31 6 C-28.95537325 1.82896144 -26.79013663 -0.90375715 -22.32421875 -2.53125 C-14.44649667 -4.12003429 -7.02195083 -4.0400265 0 0 Z " fill="#00A1A5" transform="translate(146,84)"/>
<path d="M0 0 C7.52609058 3.76304529 13.00474417 8.96010277 16 17 C18.57438225 29.14250295 14.76426497 39.90240075 10 51 C9.73445313 51.85851562 9.46890625 52.71703125 9.1953125 53.6015625 C8.16481006 56.18237836 7.16896251 57.2779049 5 59 C2.94482422 59.43823242 2.94482422 59.43823242 0.6796875 59.48046875 C-0.13153564 59.49811279 -0.94275879 59.51575684 -1.77856445 59.53393555 C-5.53448657 59.48363463 -9.25395265 59.28007831 -13 59 C-10.45053401 54.47583602 -7.79275662 50.06754603 -5 45.6875 C1.39820984 35.36761605 6.7464353 23.37306858 4.3125 10.9375 C3.41907298 7.74335243 2.15562307 5.54755453 0 3 C0 2.01 0 1.02 0 0 Z " fill="#3897D3" transform="translate(313,14)"/>
<path d="M0 0 C1.05049278 -0.00287018 1.05049278 -0.00287018 2.12220764 -0.00579834 C3.60418049 -0.00715993 5.08616527 -0.0034653 6.56811523 0.00488281 C8.8353971 0.01556723 11.10188374 0.00499547 13.36914062 -0.0078125 C14.8085955 -0.00649059 16.24804988 -0.00392753 17.6875 0 C18.99968506 0.00225586 20.31187012 0.00451172 21.66381836 0.00683594 C24.91015625 0.265625 24.91015625 0.265625 27.91015625 2.265625 C28.28515625 5.265625 28.28515625 5.265625 27.91015625 8.265625 C24.59644625 10.474765 23.56555415 10.49044053 19.72265625 10.390625 C18.82160156 10.37257813 17.92054688 10.35453125 16.9921875 10.3359375 C16.30511719 10.31273438 15.61804688 10.28953125 14.91015625 10.265625 C14.9258667 11.1942334 14.94157715 12.1228418 14.95776367 13.07958984 C15.00884478 16.51991329 15.04648232 19.95983476 15.07495117 23.40039062 C15.09005225 24.89036409 15.11053483 26.38029301 15.13647461 27.87011719 C15.17280209 30.0098773 15.18986846 32.14905066 15.203125 34.2890625 C15.21883545 35.57731934 15.2345459 36.86557617 15.25073242 38.19287109 C15.13834229 39.20687988 15.02595215 40.22088867 14.91015625 41.265625 C11.7020671 43.4043511 10.63317128 43.74293462 6.91015625 43.265625 C4.45729329 39.58633055 4.67786747 37.79184593 4.71484375 33.41015625 C4.71767365 32.74851974 4.72050354 32.08688324 4.72341919 31.40519714 C4.73459707 29.29598763 4.75969644 27.18720575 4.78515625 25.078125 C4.79518918 23.64649052 4.80431449 22.21484936 4.8125 20.78320312 C4.8345283 17.27720523 4.8690414 13.77145687 4.91015625 10.265625 C4.15089844 10.28882812 3.39164062 10.31203125 2.609375 10.3359375 C1.61550781 10.35398437 0.62164062 10.37203125 -0.40234375 10.390625 C-1.88154297 10.42542969 -1.88154297 10.42542969 -3.390625 10.4609375 C-6.08984375 10.265625 -6.08984375 10.265625 -9.08984375 8.265625 C-9.40234375 5.265625 -9.40234375 5.265625 -9.08984375 2.265625 C-6.19102497 -0.63319378 -4.05022919 0.00696899 0 0 Z " fill="#00A1A5" transform="translate(300.08984375,80.734375)"/>
<path d="M0 0 C2.875 0.75 2.875 0.75 3.875 1.75 C3.96290975 4.04151417 3.98194038 6.33572524 3.97265625 8.62890625 C3.9712413 9.3155687 3.96982635 10.00223114 3.96836853 10.70970154 C3.96275479 12.91067801 3.95020007 15.11155409 3.9375 17.3125 C3.93248676 18.80143083 3.92792355 20.29036324 3.92382812 21.77929688 C3.91278093 25.43623075 3.89550713 29.09310558 3.875 32.75 C5.13957031 32.72679687 6.40414063 32.70359375 7.70703125 32.6796875 C9.3671816 32.66092874 11.02733833 32.64272865 12.6875 32.625 C13.52087891 32.60824219 14.35425781 32.59148437 15.21289062 32.57421875 C16.41655273 32.56455078 16.41655273 32.56455078 17.64453125 32.5546875 C18.38292236 32.54421387 19.12131348 32.53374023 19.88208008 32.52294922 C21.875 32.75 21.875 32.75 24.875 34.75 C25.125 38.3125 25.125 38.3125 24.875 41.75 C23.875 42.75 23.875 42.75 21.00756836 42.86352539 C19.75596924 42.85828857 18.50437012 42.85305176 17.21484375 42.84765625 C16.21814415 42.84553383 16.21814415 42.84553383 15.2013092 42.84336853 C13.07166101 42.83775518 10.94211661 42.82520054 8.8125 42.8125 C7.37174631 42.80748671 5.93099097 42.80292351 4.49023438 42.79882812 C0.95178898 42.78778145 -2.58659539 42.77050792 -6.125 42.75 C-6.19910727 37.10834639 -6.25358167 31.46697553 -6.28979492 25.82495117 C-6.3048898 23.90530462 -6.32536773 21.9856926 -6.35131836 20.06616211 C-6.38767109 17.30834436 -6.40471912 14.5509822 -6.41796875 11.79296875 C-6.43345261 10.93350143 -6.44893646 10.07403412 -6.46488953 9.18852234 C-6.46511612 8.38791885 -6.46534271 7.58731537 -6.46557617 6.76245117 C-6.47223801 6.0585173 -6.47889984 5.35458344 -6.48576355 4.62931824 C-5.72300055 0.6558724 -3.85856459 -0.30868517 0 0 Z " fill="#00A1A5" transform="translate(370.125,81.25)"/>
<path d="M0 0 C2.4375 0.375 2.4375 0.375 4.4375 2.375 C4.83744864 6.57712705 4.76646914 10.79462592 4.75317383 15.01367188 C4.75003246 17.10340424 4.77339994 19.19169472 4.79882812 21.28125 C4.80110319 22.61978989 4.80180365 23.95833357 4.80078125 25.296875 C4.80376221 26.50956055 4.80674316 27.72224609 4.80981445 28.97167969 C4.33053859 33.35273253 2.90845536 36.69219509 0 40.01953125 C-5.04584653 43.79130153 -10.29836116 44.74912162 -16.5625 44.375 C-18.89453125 43.37890625 -18.89453125 43.37890625 -20.5625 42.375 C-20.5625 40.065 -20.5625 37.755 -20.5625 35.375 C-17.7179777 33.95273885 -14.89837776 33.99738263 -11.75390625 33.75390625 C-9.27876355 33.4782176 -9.27876355 33.4782176 -6.5625 31.375 C-6.10090056 28.63051513 -6.10090056 28.63051513 -6.15625 25.4140625 C-6.12337891 23.62355469 -6.12337891 23.62355469 -6.08984375 21.796875 C-6.08082031 20.54390625 -6.07179688 19.2909375 -6.0625 18 C-6.04462841 15.53372093 -6.01392329 13.06749259 -5.96875 10.6015625 C-5.96166016 9.50408691 -5.95457031 8.40661133 -5.94726562 7.27587891 C-5.4011408 3.15845812 -4.28526787 0.62711237 0 0 Z " fill="#00A2A6" transform="translate(23.5625,80.625)"/>
<path d="M0 0 C-1 3 -1 3 -3.07519531 4.23925781 C-3.98366211 4.63983398 -4.89212891 5.04041016 -5.828125 5.453125 C-7.35336792 6.12976196 -7.35336792 6.12976196 -8.90942383 6.82006836 C-10.56300903 7.52788452 -10.56300903 7.52788452 -12.25 8.25 C-13.38010498 8.73799072 -14.51020996 9.22598145 -15.67456055 9.72875977 C-37.98988149 19.21414189 -64.98706103 30.40840271 -89.140625 22.203125 C-94.63012557 19.89333514 -98.56666633 16.58235372 -101 11 C-100.56640625 8.84765625 -100.56640625 8.84765625 -100 7 C-99.36384766 7.59748047 -99.36384766 7.59748047 -98.71484375 8.20703125 C-88.13590433 17.76295235 -76.46342771 17.6386523 -62.83984375 17.17919922 C-41.6381471 15.84133425 -19.8415958 0 0 0 Z " fill="#00A2A5" transform="translate(178,148)"/>
<path d="M0 0 C2.94427788 2.88837387 4.92172683 5.71932836 6.375 9.625 C6.375 10.285 6.375 10.945 6.375 11.625 C3.62568417 10.46182792 1.85072254 9.1706262 -0.4375 7.1875 C-10.70991156 -1.43625291 -25.57386052 -0.9837508 -38.29296875 0.01953125 C-54.38706643 1.64080399 -70.2668239 5.64258167 -85.625 10.625 C-87.12740234 11.11033203 -87.12740234 11.11033203 -88.66015625 11.60546875 C-90.65403622 12.26187746 -92.64090421 12.93958509 -94.625 13.625 C-94.955 12.635 -95.285 11.645 -95.625 10.625 C-21.84638801 -17.8815263 -21.84638801 -17.8815263 0 0 Z " fill="#00A2A6" transform="translate(304.625,30.375)"/>
<path d="M0 0 C4.29 0 8.58 0 13 0 C12.71125 1.07378906 12.4225 2.14757812 12.125 3.25390625 C11.74955389 4.68998761 11.37457895 6.12619221 11 7.5625 C10.80921875 8.26697266 10.6184375 8.97144531 10.421875 9.69726562 C8.44646465 17.35198074 8.30938587 23.88128404 12 31 C14.01917822 33.44210522 14.01917822 33.44210522 16 35 C15.67 35.99 15.34 36.98 15 38 C7.5149547 33.45907252 0.67030592 28.7059289 -2 20 C-2.18861498 17.26785648 -2.27999165 14.66424114 -2.25 11.9375 C-2.26160156 10.87692383 -2.26160156 10.87692383 -2.2734375 9.79492188 C-2.25816884 5.72963988 -1.86682936 3.73365872 0 0 Z " fill="#F39C1C" transform="translate(65,136)"/>
</svg>
